<?xml version="1.0" standalone="no"?>
<!DOCTYPE svg PUBLIC "-//W3C//DTD SVG 20010904//EN"
 "http://www.w3.org/TR/2001/REC-SVG-20010904/DTD/svg10.dtd">
<svg version="1.0" xmlns="http://www.w3.org/2000/svg"
 width="740.000000pt" height="740.000000pt" viewBox="0 0 740.000000 740.000000"
 preserveAspectRatio="xMidYMid meet">

<g transform="translate(0.000000,740.000000) scale(0.100000,-0.100000)"
fill="#ffffff" stroke="none">
<path d="M2800 4921 c0 -5 17 -12 37 -16 81 -15 147 -66 180 -140 16 -35 19
-81 23 -391 l5 -351 112 -119 113 -119 0 418 c0 245 4 417 9 417 5 0 27 -19
48 -43 21 -24 137 -147 257 -273 121 -126 431 -451 689 -721 l470 -493 264 0
c215 0 263 2 263 14 0 9 -18 15 -52 19 -74 9 -134 50 -172 117 l-31 55 0 365
c0 282 3 374 14 403 26 76 100 137 184 152 96 18 11 25 -313 25 -192 0 -350
-4 -350 -8 0 -5 27 -16 60 -25 44 -13 71 -28 100 -57 66 -66 71 -98 68 -450
l-3 -303 -730 766 -730 766 -257 0 c-144 1 -258 -3 -258 -8z"/>
<path d="M3900 4921 c0 -5 15 -13 33 -16 73 -16 134 -63 170 -130 21 -37 22
-57 27 -317 l5 -277 110 -117 110 -118 5 390 c5 346 7 393 23 429 33 73 99
125 180 140 96 18 11 25 -313 25 -207 0 -350 -4 -350 -9z"/>
<path d="M2150 4296 c0 -8 16 -15 41 -19 69 -9 129 -54 164 -122 l30 -59 3
-343 c3 -291 1 -351 -13 -398 -27 -94 -98 -155 -198 -170 -117 -18 -22 -25
328 -25 350 0 445 7 328 25 -67 10 -105 27 -146 68 -63 64 -68 93 -65 445 l3
312 734 -770 735 -770 263 0 c248 0 322 8 221 25 -93 15 -151 55 -191 130 -21
39 -22 53 -25 399 l-3 358 -114 118 -115 118 -2 -420 -3 -421 -730 766 -730
766 -257 1 c-212 0 -258 -2 -258 -14z"/>
<path d="M3038 3064 c-3 -389 -4 -400 -25 -440 -12 -22 -38 -55 -57 -72 -33
-29 -117 -62 -158 -62 -10 0 -18 -4 -18 -10 0 -6 132 -10 375 -10 243 0 375 4
375 10 0 6 -8 10 -18 10 -55 0 -129 34 -173 79 -64 67 -69 93 -70 398 l0 258
-114 119 -114 120 -3 -400z"/>
</g>
</svg>
